<svg width="78" height="161" viewBox="0 0 78 161" fill="none" xmlns="http://www.w3.org/2000/svg">
<g clip-path="url(#clip0_104_6693)">
<path d="M78.024 42.1554H77.1646V18.7311C77.1646 16.9508 76.8121 15.1878 76.1273 13.543C75.4426 11.8981 74.4388 10.4036 73.1735 9.14468C71.9082 7.88576 70.406 6.88714 68.7528 6.20582C67.0995 5.5245 65.3276 5.17383 63.5382 5.17383H13.6577C11.8683 5.17382 10.0963 5.52449 8.44309 6.2058C6.78985 6.88712 5.28768 7.88574 4.02235 9.14465C2.75702 10.4036 1.7533 11.8981 1.06851 13.5429C0.38371 15.1878 0.0312534 16.9507 0.03125 18.7311V147.238C0.0312477 149.019 0.383697 150.782 1.06849 152.426C1.75328 154.071 2.757 155.566 4.02233 156.825C5.28766 158.084 6.78982 159.082 8.44306 159.764C10.0963 160.445 11.8682 160.796 13.6577 160.796H63.5381C65.3275 160.796 67.0995 160.445 68.7527 159.764C70.406 159.082 71.9081 158.084 73.1735 156.825C74.4388 155.566 75.4425 154.071 76.1273 152.426C76.8121 150.782 77.1646 149.019 77.1646 147.238V58.8291H78.024V42.1554Z" fill="#3F3D56"/>
<path d="M74.2633 18.8243V147.144C74.2633 148.474 74 149.791 73.4885 151.019C72.977 152.247 72.2272 153.363 71.2821 154.303C70.337 155.243 69.215 155.989 67.9802 156.497C66.7454 157.006 65.422 157.267 64.0856 157.267H13.9651C12.629 157.267 11.3059 157.005 10.0715 156.496C8.8371 155.988 7.71549 155.242 6.77073 154.302C5.82596 153.362 5.07654 152.246 4.56528 151.018C4.05401 149.79 3.79092 148.474 3.79102 147.144V18.8243C3.79092 17.495 4.05401 16.1786 4.56528 14.9505C5.07654 13.7223 5.82596 12.6064 6.77073 11.6665C7.71549 10.7265 8.8371 9.98088 10.0715 9.47222C11.3059 8.96356 12.629 8.7018 13.9651 8.7019H20.0474C19.7489 9.43231 19.6353 10.2245 19.7166 11.0088C19.798 11.7932 20.0718 12.5456 20.514 13.1999C20.9562 13.8543 21.5532 14.3905 22.2526 14.7614C22.9519 15.1323 23.7322 15.3266 24.5247 15.3271H53.0999C53.8929 15.3279 54.6738 15.1344 55.3739 14.7639C56.074 14.3933 56.6716 13.857 57.1141 13.2023C57.5565 12.5475 57.8303 11.7945 57.911 11.0097C57.9918 10.2248 57.8772 9.43227 57.5773 8.7019H64.0856C65.422 8.70142 66.7454 8.96289 67.9802 9.47137C69.215 9.97985 70.337 10.7254 71.2821 11.6654C72.2272 12.6054 72.977 13.7214 73.4885 14.9498C74 16.1781 74.2633 17.4947 74.2633 18.8243Z" fill="white"/>
<path d="M58.6739 85.5063H14.6194C13.8478 85.5054 13.108 85.2 12.5624 84.6572C12.0168 84.1143 11.7099 83.3783 11.709 82.6106V81.1692C11.7099 80.4015 12.0168 79.6655 12.5624 79.1226C13.108 78.5798 13.8478 78.2744 14.6194 78.2736H58.6739C59.4455 78.2744 60.1853 78.5798 60.7309 79.1226C61.2766 79.6655 61.5835 80.4015 61.5844 81.1692V82.6106C61.5835 83.3783 61.2766 84.1143 60.7309 84.6572C60.1853 85.2 59.4455 85.5054 58.6739 85.5063Z" fill="#F0F0F0"/>
<path d="M58.6739 97.9308H14.6194C13.8478 97.93 13.108 97.6246 12.5624 97.0817C12.0168 96.5389 11.7099 95.8029 11.709 95.0351V93.5938C11.7099 92.8261 12.0168 92.0901 12.5624 91.5472C13.108 91.0043 13.8478 90.699 14.6194 90.6981H58.6739C59.4455 90.699 60.1853 91.0043 60.7309 91.5472C61.2766 92.0901 61.5835 92.8261 61.5844 93.5938V95.0351C61.5835 95.8029 61.2766 96.5389 60.7309 97.0817C60.1853 97.6246 59.4455 97.93 58.6739 97.9308Z" fill="#F0F0F0"/>
<path d="M60.8761 82.7276H16.8216C16.0114 82.7267 15.2346 82.406 14.6617 81.836C14.0888 81.266 13.7665 80.4932 13.7656 79.6871V78.2458C13.7665 77.4397 14.0888 76.6669 14.6617 76.0969C15.2346 75.5269 16.0114 75.2062 16.8216 75.2053H60.8761C61.6863 75.2062 62.463 75.5269 63.0359 76.0969C63.6089 76.6669 63.9311 77.4397 63.9321 78.2458V79.6871C63.9311 80.4932 63.6089 81.266 63.0359 81.836C62.463 82.406 61.6863 82.7267 60.8761 82.7276ZM16.8216 75.7845C16.1657 75.7852 15.5369 76.0447 15.0731 76.5062C14.6093 76.9676 14.3484 77.5932 14.3477 78.2458V79.6871C14.3484 80.3397 14.6093 80.9653 15.0731 81.4267C15.5369 81.8882 16.1657 82.1477 16.8216 82.1485H60.8761C61.532 82.1477 62.1608 81.8882 62.6246 81.4267C63.0884 80.9653 63.3492 80.3397 63.35 79.6871V78.2458C63.3492 77.5932 63.0884 76.9676 62.6246 76.5062C62.1608 76.0447 61.532 75.7852 60.8761 75.7845H16.8216Z" fill="#3F3D56"/>
<path d="M60.8761 95.1522H16.8216C16.0114 95.1512 15.2346 94.8306 14.6617 94.2606C14.0888 93.6906 13.7665 92.9178 13.7656 92.1117V90.6704C13.7665 89.8643 14.0888 89.0914 14.6617 88.5214C15.2346 87.9514 16.0114 87.6308 16.8216 87.6299H60.8761C61.6863 87.6308 62.463 87.9514 63.0359 88.5214C63.6089 89.0914 63.9311 89.8643 63.9321 90.6704V92.1117C63.9311 92.9178 63.6089 93.6906 63.0359 94.2606C62.463 94.8306 61.6863 95.1512 60.8761 95.1522ZM16.8216 88.209C16.1657 88.2097 15.5369 88.4693 15.0731 88.9307C14.6093 89.3922 14.3484 90.0178 14.3477 90.6704V92.1117C14.3484 92.7643 14.6093 93.3899 15.0731 93.8513C15.5369 94.3127 16.1657 94.5723 16.8216 94.573H60.8761C61.532 94.5723 62.1608 94.3127 62.6246 93.8513C63.0884 93.3899 63.3492 92.7643 63.35 92.1117V90.6704C63.3492 90.0178 63.0884 89.3922 62.6246 88.9307C62.1608 88.4693 61.532 88.2097 60.8761 88.209H16.8216Z" fill="#3F3D56"/>
<path d="M74.2645 18.8243V46.7357C69.8069 47.9025 65.1396 48.0363 60.6219 47.127C56.1041 46.2176 51.8562 44.2893 48.205 41.4903C44.5538 38.6913 41.5966 35.0963 39.5609 30.9818C37.5253 26.8674 36.4654 22.3432 36.4629 17.7572C36.4629 16.9387 36.4959 16.1286 36.5621 15.3271H53.1011C53.8941 15.3279 54.6751 15.1344 55.3751 14.7639C56.0752 14.3933 56.6728 13.857 57.1153 13.2023C57.5578 12.5475 57.8315 11.7945 57.9123 11.0097C57.9931 10.2248 57.8785 9.43227 57.5786 8.7019H64.0869C65.4232 8.70142 66.7466 8.96289 67.9814 9.47137C69.2162 9.97985 70.3382 10.7254 71.2833 11.6654C72.2285 12.6054 72.9782 13.7214 73.4897 14.9498C74.0012 16.1781 74.2645 17.4947 74.2645 18.8243Z" fill="#F0F0F0"/>
<path d="M29.1158 155.524C29.1158 156.112 29.0938 156.693 29.0461 157.267H13.9651C12.629 157.267 11.3059 157.005 10.0715 156.496C8.8371 155.988 7.71549 155.242 6.77073 154.302C5.82596 153.362 5.07654 152.246 4.56528 151.018C4.05401 149.79 3.79092 148.474 3.79102 147.144V133.419C6.95221 133.01 10.1647 133.276 13.2144 134.199C16.2642 135.123 19.0811 136.682 21.4774 138.774C23.8738 140.865 25.7945 143.441 27.1116 146.329C28.4287 149.218 29.112 152.352 29.1158 155.524Z" fill="url(#paint0_linear_104_6693)"/>
<path d="M96.3351 160.962H-109.143C-109.22 160.962 -109.294 160.931 -109.348 160.877C-109.403 160.822 -109.434 160.749 -109.434 160.672C-109.434 160.595 -109.403 160.522 -109.348 160.467C-109.294 160.413 -109.22 160.382 -109.143 160.382H96.3351C96.4122 160.382 96.4863 160.413 96.5408 160.467C96.5954 160.522 96.6261 160.595 96.6261 160.672C96.6261 160.749 96.5954 160.822 96.5408 160.877C96.4863 160.931 96.4122 160.962 96.3351 160.962Z" fill="#3F3D56"/>
<path d="M46.1849 112.913H25.2698C24.4982 112.913 23.7584 112.607 23.2128 112.064C22.6671 111.521 22.3602 110.785 22.3594 110.018V108.576C22.3602 107.809 22.6671 107.073 23.2128 106.53C23.7584 105.987 24.4982 105.682 25.2698 105.681H46.1849C46.9565 105.682 47.6963 105.987 48.2419 106.53C48.7876 107.073 49.0945 107.809 49.0953 108.576V110.018C49.0945 110.785 48.7876 111.521 48.2419 112.064C47.6963 112.607 46.9565 112.913 46.1849 112.913Z" fill="url(#paint1_linear_104_6693)"/>
<path d="M48.3891 110.135H27.4739C26.6637 110.134 25.887 109.813 25.3141 109.243C24.7411 108.673 24.4189 107.9 24.418 107.094V105.653C24.4189 104.847 24.7411 104.074 25.3141 103.504C25.887 102.934 26.6637 102.613 27.4739 102.612H48.3891C49.1993 102.613 49.976 102.934 50.549 103.504C51.1219 104.074 51.4441 104.847 51.4451 105.653V107.094C51.4441 107.9 51.1219 108.673 50.549 109.243C49.976 109.813 49.1993 110.134 48.3891 110.135ZM27.4739 103.192C26.818 103.192 26.1892 103.452 25.7254 103.913C25.2617 104.375 25.0008 105 25.0001 105.653V107.094C25.0008 107.747 25.2617 108.372 25.7254 108.834C26.1892 109.295 26.818 109.555 27.4739 109.556H48.3891C49.045 109.555 49.6738 109.295 50.1376 108.834C50.6014 108.372 50.8622 107.747 50.863 107.094V105.653C50.8622 105 50.6014 104.375 50.1376 103.913C49.6738 103.452 49.045 103.192 48.3891 103.192H27.4739Z" fill="#3F3D56"/>
</g>
<defs>
<linearGradient id="paint0_linear_104_6693" x1="3.47446" y1="146.845" x2="24.1675" y2="140.674" gradientUnits="userSpaceOnUse">
<stop offset="0.289228" stop-color="#002962"/>
<stop offset="1" stop-color="#315387"/>
</linearGradient>
<linearGradient id="paint1_linear_104_6693" x1="22.0252" y1="109.777" x2="33.3826" y2="97.8948" gradientUnits="userSpaceOnUse">
<stop offset="0.289228" stop-color="#002962"/>
<stop offset="1" stop-color="#315387"/>
</linearGradient>
<clipPath id="clip0_104_6693">
<rect width="78" height="161" fill="white"/>
</clipPath>
</defs>
</svg>
