<svg width="250" height="111" viewBox="0 0 250 111" fill="none" xmlns="http://www.w3.org/2000/svg">
<g clip-path="url(#clip0_103_2821)">
<path d="M106.43 70.9139H5.14977C3.78444 70.9124 2.47546 70.3693 1.51003 69.4039C0.544589 68.4384 0.0015325 67.1294 0 65.764V3.92186C0.00115081 2.88209 0.414682 1.88524 1.14987 1.15001C1.88506 0.414768 2.88186 0.00118701 3.92159 0H107.6C108.655 0.00118848 109.667 0.420898 110.413 1.16704C111.159 1.91319 111.579 2.92483 111.58 3.98003V65.764C111.578 67.1294 111.035 68.4384 110.07 69.4039C109.104 70.3693 107.795 70.9124 106.43 70.9139Z" fill="white"/>
<path d="M106.43 70.9139H5.14977C3.78444 70.9124 2.47546 70.3693 1.51003 69.4039C0.544589 68.4384 0.0015325 67.1294 0 65.764V3.92186C0.00115081 2.88209 0.414682 1.88524 1.14987 1.15001C1.88506 0.414768 2.88186 0.00118701 3.92159 0H107.6C108.655 0.00118848 109.667 0.420898 110.413 1.16704C111.159 1.91319 111.579 2.92483 111.58 3.98003V65.764C111.578 67.1294 111.035 68.4384 110.07 69.4039C109.104 70.3693 107.795 70.9124 106.43 70.9139ZM3.92159 1.1135C3.17707 1.11437 2.4633 1.41054 1.93686 1.93702C1.41042 2.46351 1.1143 3.17731 1.11346 3.92186V65.764C1.11468 66.8342 1.54033 67.8601 2.29702 68.6169C3.05371 69.3736 4.07965 69.7992 5.14977 69.8004H106.43C107.5 69.7992 108.526 69.3736 109.283 68.6169C110.039 67.8601 110.465 66.8342 110.466 65.764V3.98003C110.465 3.22005 110.163 2.49143 109.626 1.95403C109.088 1.41663 108.36 1.11435 107.6 1.1135H3.92159Z" fill="#E6E6E6"/>
<path d="M46.2396 55.2564H15.8922C15.1497 55.2553 14.4328 54.9848 13.8746 54.4953C13.3163 54.0057 12.9546 53.3303 12.8566 52.5943C12.8381 52.4617 12.8293 52.328 12.8301 52.1942V18.7196C12.831 17.9078 13.1539 17.1294 13.728 16.5554C14.302 15.9813 15.0803 15.6584 15.8922 15.6575H46.2396C47.0514 15.6584 47.8297 15.9813 48.4038 16.5554C48.9778 17.1294 49.3007 17.9078 49.3016 18.7196V52.1942C49.3007 53.0061 48.9778 53.7844 48.4038 54.3585C47.8297 54.9325 47.0514 55.2554 46.2396 55.2564ZM15.8922 17.3277C15.5232 17.3281 15.1694 17.4749 14.9085 17.7359C14.6475 17.9968 14.5008 18.3506 14.5003 18.7196V52.1942C14.4997 52.2515 14.5033 52.3087 14.5109 52.3654C14.5535 52.7019 14.7172 53.0115 14.9714 53.2361C15.2256 53.4608 15.5529 53.5852 15.8922 53.5861H46.2396C46.6086 53.5857 46.9624 53.4389 47.2233 53.178C47.4843 52.917 47.631 52.5633 47.6315 52.1942V18.7196C47.631 18.3506 47.4843 17.9968 47.2233 17.7359C46.9624 17.4749 46.6086 17.3281 46.2396 17.3277H15.8922Z" fill="#E6E6E6"/>
<path d="M96.522 44.3719H59.7777C59.1871 44.3719 58.6207 44.1372 58.203 43.7196C57.7854 43.3019 57.5508 42.7355 57.5508 42.1448C57.5508 41.5542 57.7854 40.9878 58.203 40.5701C58.6207 40.1525 59.1871 39.9178 59.7777 39.9178H96.522C97.1126 39.9178 97.6791 40.1525 98.0967 40.5701C98.5143 40.9878 98.749 41.5542 98.749 42.1448C98.749 42.7355 98.5143 43.3019 98.0967 43.7196C97.6791 44.1372 97.1126 44.3719 96.522 44.3719Z" fill="#E6E6E6"/>
<path d="M79.8201 34.9071H59.7777C59.1871 34.9071 58.6207 34.6725 58.203 34.2549C57.7854 33.8372 57.5508 33.2708 57.5508 32.6801C57.5508 32.0895 57.7854 31.523 58.203 31.1054C58.6207 30.6878 59.1871 30.4531 59.7777 30.4531H79.8201C80.4107 30.4531 80.9771 30.6878 81.3947 31.1054C81.8124 31.523 82.047 32.0895 82.047 32.6801C82.047 33.2708 81.8124 33.8372 81.3947 34.2549C80.9771 34.6725 80.4107 34.9071 79.8201 34.9071Z" fill="#E6E6E6"/>
<path d="M41.0727 34.5369C41.0727 39.4566 36.5237 38.7125 30.9123 38.7125C25.3009 38.7125 20.752 39.4566 20.752 34.5369C20.752 29.6171 22.974 20.8965 30.9123 20.8965C39.1241 20.8965 41.0727 29.6171 41.0727 34.5369Z" fill="#2F2E41"/>
<path d="M41.4823 42.8169C41.2864 42.2512 40.8956 41.7737 40.38 41.4695C40.2805 41.4084 40.1762 41.3554 40.0682 41.3109C39.616 41.1228 39.1188 41.0706 38.6374 41.1606C38.156 41.2506 37.7112 41.4789 37.3575 41.8176C37.0037 42.1563 36.7563 42.5907 36.6455 43.0678C36.5346 43.5448 36.5652 44.0439 36.7334 44.5038L40.7808 53.7041H46.1115L41.4823 42.8169Z" fill="#3F3D56"/>
<path d="M23.82 43.318C23.5001 43.1634 23.1511 43.0782 22.796 43.0679C22.4408 43.0577 22.0875 43.1227 21.7592 43.2586C21.4309 43.3945 21.135 43.5982 20.891 43.8565C20.647 44.1148 20.4604 44.4217 20.3433 44.7572L16.5742 53.6234C16.7672 53.6773 16.9667 53.7045 17.1671 53.7042H21.8966L25.0921 46.4441C25.3053 45.8581 25.2931 45.2137 25.0581 44.6361C24.823 44.0584 24.3818 43.5887 23.82 43.318Z" fill="#3F3D56"/>
<path d="M30.878 38.7044C34.6539 38.7044 37.7149 35.6433 37.7149 31.8672C37.7149 28.0911 34.6539 25.03 30.878 25.03C27.102 25.03 24.041 28.0911 24.041 31.8672C24.041 35.6433 27.102 38.7044 30.878 38.7044Z" fill="#FFB8B8"/>
<path d="M40.5005 41.5781C40.4616 41.5419 40.4226 41.5029 40.3809 41.4695C39.9043 41.0398 39.3402 40.7185 38.7275 40.5277C38.1148 40.3369 37.468 40.2812 36.8317 40.3644L24.2328 41.9595C23.0787 42.1022 22.0256 42.689 21.297 43.5954C20.5683 44.5018 20.2215 45.6564 20.3301 46.8143C20.5027 48.7574 20.7811 51.2099 21.2265 53.7041H41.1297L41.8617 45.197C41.9206 44.5303 41.8289 43.8589 41.5932 43.2325C41.3576 42.6061 40.9841 42.0407 40.5005 41.5781Z" fill="#3F3D56"/>
<path d="M22.9785 31.1964H25.6827L26.8756 27.8559L27.1142 31.1964H28.4067L29.1026 29.2477L29.2418 31.1964H38.8454C38.8454 29.2768 38.0829 27.4359 36.7256 26.0785C35.3683 24.7212 33.5274 23.9586 31.6079 23.9586H30.216C28.2965 23.9586 26.4556 24.7212 25.0983 26.0785C23.741 27.4359 22.9785 29.2768 22.9785 31.1964Z" fill="#2F2E41"/>
<path d="M138.42 65.764V3.98003C138.421 2.92483 138.841 1.91319 139.587 1.16704C140.333 0.420898 141.345 0.00118848 142.4 0H246.078C247.118 0.00118701 248.115 0.414768 248.85 1.15001C249.585 1.88524 249.999 2.88209 250 3.92186V65.764C249.998 67.1294 249.455 68.4384 248.49 69.4039C247.524 70.3693 246.215 70.9124 244.85 70.9139H143.57C142.204 70.9124 140.895 70.3693 139.93 69.4039C138.965 68.4384 138.421 67.1294 138.42 65.764Z" fill="white"/>
<path d="M138.42 65.764V3.98003C138.421 2.92483 138.841 1.91319 139.587 1.16704C140.333 0.420898 141.345 0.00118848 142.4 0H246.078C247.118 0.00118701 248.115 0.414768 248.85 1.15001C249.585 1.88524 249.999 2.88209 250 3.92186V65.764C249.998 67.1294 249.455 68.4384 248.49 69.4039C247.524 70.3693 246.215 70.9124 244.85 70.9139H143.57C142.204 70.9124 140.895 70.3693 139.93 69.4039C138.965 68.4384 138.421 67.1294 138.42 65.764ZM142.4 1.1135C141.64 1.11435 140.911 1.41663 140.374 1.95403C139.836 2.49143 139.534 3.22005 139.533 3.98003V65.764C139.535 66.8342 139.96 67.8601 140.717 68.6169C141.474 69.3736 142.5 69.7992 143.57 69.8004H244.85C245.92 69.7992 246.946 69.3736 247.703 68.6169C248.459 67.8601 248.885 66.8342 248.886 65.764V3.92186C248.885 3.17731 248.589 2.46351 248.063 1.93702C247.536 1.41054 246.823 1.11437 246.078 1.1135H142.4Z" fill="#E6E6E6"/>
<path d="M200.697 52.1942V18.7196C200.698 17.9078 201.021 17.1294 201.595 16.5554C202.169 15.9813 202.947 15.6584 203.759 15.6575H234.107C234.919 15.6584 235.697 15.9813 236.271 16.5554C236.845 17.1294 237.168 17.9078 237.169 18.7196V52.1942C237.17 52.328 237.161 52.4617 237.142 52.5943C237.044 53.3303 236.683 54.0057 236.124 54.4953C235.566 54.9848 234.849 55.2553 234.107 55.2564H203.759C202.947 55.2554 202.169 54.9325 201.595 54.3585C201.021 53.7844 200.698 53.0061 200.697 52.1942ZM203.759 17.3277C203.39 17.3281 203.037 17.4749 202.776 17.7359C202.515 17.9968 202.368 18.3506 202.367 18.7196V52.1942C202.368 52.5633 202.515 52.917 202.776 53.178C203.037 53.4389 203.39 53.5857 203.759 53.5861H234.107C234.446 53.5852 234.773 53.4608 235.027 53.2361C235.282 53.0115 235.445 52.7019 235.488 52.3654C235.496 52.3087 235.499 52.2515 235.499 52.1942V18.7196C235.498 18.3506 235.351 17.9968 235.09 17.7359C234.83 17.4749 234.476 17.3281 234.107 17.3277H203.759Z" fill="#E6E6E6"/>
<path d="M151.25 42.1448C151.251 41.5544 151.486 40.9884 151.903 40.5709C152.32 40.1534 152.887 39.9185 153.477 39.9178H190.221C190.812 39.9178 191.378 40.1525 191.796 40.5701C192.214 40.9878 192.448 41.5542 192.448 42.1448C192.448 42.7355 192.214 43.3019 191.796 43.7196C191.378 44.1372 190.812 44.3719 190.221 44.3719H153.477C152.887 44.3712 152.32 44.1363 151.903 43.7188C151.486 43.3013 151.251 42.7353 151.25 42.1448Z" fill="#E6E6E6"/>
<path d="M151.25 32.6801C151.251 32.0897 151.486 31.5236 151.903 31.1061C152.32 30.6886 152.887 30.4538 153.477 30.4531H173.519C174.11 30.4531 174.676 30.6878 175.094 31.1054C175.512 31.523 175.746 32.0895 175.746 32.6801C175.746 33.2708 175.512 33.8372 175.094 34.2549C174.676 34.6725 174.11 34.9071 173.519 34.9071H153.477C152.887 34.9065 152.32 34.6716 151.903 34.2541C151.486 33.8366 151.251 33.2706 151.25 32.6801Z" fill="#E6E6E6"/>
<path d="M211.435 28.6659C213.387 32.5029 214.925 36.4604 219.229 36.4604C221.296 36.4604 223.279 35.6392 224.741 34.1775C226.202 32.7157 227.023 30.7331 227.023 28.6659C227.023 26.5987 226.202 24.6161 224.741 23.1543C223.279 21.6926 221.296 20.8714 219.229 20.8714C214.854 20.8166 207.803 21.5241 211.435 28.6659Z" fill="#2F2E41"/>
<path d="M218.845 36.6122C222.621 36.6122 225.682 33.5511 225.682 29.7751C225.682 25.999 222.621 22.9379 218.845 22.9379C215.069 22.9379 212.008 25.999 212.008 29.7751C212.008 33.5511 215.069 36.6122 218.845 36.6122Z" fill="#A0616A"/>
<path d="M228.18 42.2378C227.739 41.7577 227.259 41.3145 226.746 40.9128C224.502 39.1538 221.689 38.2819 218.843 38.4631C218.729 38.4686 218.615 38.477 218.501 38.4881C216.853 38.6199 215.252 39.1011 213.804 39.8998C212.357 40.6985 211.096 41.7963 210.105 43.1203C209.1 44.4644 208.393 46.0079 208.032 47.6474C207.671 49.2869 207.664 50.9845 208.012 52.6268C208.087 52.9748 208.154 53.3255 208.218 53.6763H230.883L231.144 51.9225C231.406 50.1893 231.275 48.4194 230.762 46.7433C230.249 45.0672 229.367 43.5276 228.18 42.2378Z" fill="#3F3D56"/>
<path d="M231.651 44.0668C231.491 43.1521 231.015 42.3223 230.307 41.7221C229.598 41.1219 228.702 40.7892 227.773 40.782C227.737 40.782 227.698 40.7848 227.662 40.7848C227.353 40.7918 227.045 40.8348 226.746 40.9128C226.243 41.0465 225.771 41.2783 225.358 41.5948C224.945 41.9112 224.598 42.3062 224.338 42.7571C224.078 43.2079 223.909 43.7057 223.842 44.2219C223.774 44.738 223.81 45.2624 223.946 45.7649L226.086 53.6763H233.29L231.651 44.0668Z" fill="#3F3D56"/>
<path d="M215.797 41.9929C215.526 41.4596 215.136 40.995 214.659 40.6344C214.321 40.379 213.942 40.1815 213.54 40.0498C213.375 39.9935 213.207 39.9489 213.036 39.9162C212.105 39.74 211.141 39.9024 210.32 40.3741C209.498 40.8457 208.872 41.5956 208.554 42.4884L204.635 53.6763H212.073L215.867 45.4475C216.12 44.9046 216.245 44.311 216.233 43.7121C216.221 43.1133 216.072 42.5252 215.797 41.9929Z" fill="#3F3D56"/>
<path d="M211.59 25.911C213.152 26.9879 215.007 27.561 216.904 27.5534C216.227 28.0227 215.457 28.3398 214.645 28.4826C217.168 29.0238 219.776 29.0385 222.304 28.5257C222.867 28.4355 223.409 28.2492 223.908 27.975C224.156 27.8361 224.373 27.6465 224.543 27.4185C224.714 27.1905 224.835 26.9291 224.897 26.6514C225.065 25.6914 224.317 24.8192 223.54 24.2314C222.35 23.3452 220.978 22.7346 219.523 22.4439C218.068 22.1531 216.566 22.1894 215.127 22.5501C214.187 22.7931 213.245 23.2036 212.635 23.9583C212.024 24.7131 211.844 25.8768 212.425 26.654L211.59 25.911Z" fill="#2F2E41"/>
<path d="M175.641 111H74.3607C72.9954 110.998 71.6864 110.455 70.721 109.49C69.7555 108.524 69.2125 107.215 69.2109 105.85V44.0079C69.2121 42.9682 69.6256 41.9713 70.3608 41.2361C71.096 40.5008 72.0928 40.0872 73.1325 40.0861H176.811C177.866 40.0872 178.878 40.507 179.624 41.2531C180.37 41.9992 180.79 43.0109 180.791 44.0661V105.85C180.789 107.215 180.246 108.524 179.281 109.49C178.315 110.455 177.006 110.998 175.641 111Z" fill="white"/>
<path d="M175.641 111H74.3607C72.9954 110.998 71.6864 110.455 70.721 109.49C69.7555 108.524 69.2125 107.215 69.2109 105.85V44.0079C69.2121 42.9682 69.6256 41.9713 70.3608 41.2361C71.096 40.5008 72.0928 40.0872 73.1325 40.0861H176.811C177.866 40.0872 178.878 40.507 179.624 41.2531C180.37 41.9992 180.79 43.0109 180.791 44.0661V105.85C180.789 107.215 180.246 108.524 179.281 109.49C178.315 110.455 177.006 110.998 175.641 111ZM73.1325 41.1996C72.388 41.2004 71.6742 41.4966 71.1478 42.0231C70.6214 42.5496 70.3252 43.2634 70.3244 44.0079V105.85C70.3256 106.92 70.7513 107.946 71.5079 108.703C72.2646 109.46 73.2906 109.885 74.3607 109.887H175.641C176.711 109.885 177.737 109.46 178.494 108.703C179.25 107.946 179.676 106.92 179.677 105.85V44.0661C179.676 43.3061 179.374 42.5775 178.837 42.0401C178.299 41.5027 177.571 41.2004 176.811 41.1996H73.1325Z" fill="#3F3D56"/>
<path d="M115.451 95.3424H85.1031C84.3606 95.3413 83.6437 95.0709 83.0855 94.5814C82.5273 94.0918 82.1656 93.4163 82.0675 92.6803C82.0491 92.5478 82.0402 92.4141 82.0411 92.2803V58.8057C82.042 57.9938 82.3649 57.2155 82.9389 56.6414C83.513 56.0674 84.2913 55.7444 85.1031 55.7435H115.451C116.262 55.7444 117.041 56.0674 117.615 56.6414C118.189 57.2155 118.512 57.9938 118.513 58.8057V92.2803C118.512 93.0922 118.189 93.8705 117.615 94.4445C117.041 95.0186 116.262 95.3415 115.451 95.3424ZM85.1031 57.4138C84.7341 57.4142 84.3803 57.561 84.1194 57.8219C83.8585 58.0829 83.7117 58.4366 83.7113 58.8057V92.2803C83.7107 92.3375 83.7142 92.3947 83.7219 92.4514C83.7645 92.788 83.9282 93.0975 84.1824 93.3222C84.4366 93.5468 84.7639 93.6713 85.1031 93.6722H115.451C115.82 93.6718 116.173 93.525 116.434 93.264C116.695 93.0031 116.842 92.6493 116.842 92.2803V58.8057C116.842 58.4366 116.695 58.0829 116.434 57.8219C116.173 57.561 115.82 57.4142 115.451 57.4138H85.1031Z" fill="#E6E6E6"/>
<path d="M99.8355 61.8634C97.8599 60.9443 95.4344 60.643 93.4242 61.497C91.414 62.3511 90.0436 64.5401 90.6936 66.4774C90.9883 67.3557 91.6595 68.2196 91.398 69.1066C91.1967 69.7895 90.4945 70.2403 89.805 70.5608C89.1154 70.8813 88.3611 71.1508 87.8624 71.6914C87.3637 72.2321 87.2597 73.1627 87.8827 73.582C88.088 73.7201 88.3445 73.7856 88.5435 73.9312C88.7131 74.069 88.8355 74.2563 88.8936 74.467C88.9517 74.6777 88.9426 74.9012 88.8676 75.1065C88.7017 75.5196 88.4276 75.8803 88.074 76.1506C87.3668 76.7605 86.4322 77.4586 86.6518 78.3244C86.7332 78.5558 86.8693 78.7641 87.0485 78.9317C87.2276 79.0992 87.4446 79.2211 87.6809 79.287C88.1717 79.4285 88.6809 79.4957 89.1916 79.4864L110.06 80.1437C110.748 80.1955 111.441 80.1568 112.12 80.0287C112.45 79.9685 112.764 79.8409 113.042 79.6538C113.321 79.4668 113.558 79.2243 113.738 78.9416C114.138 78.2019 113.875 77.2907 113.382 76.6C112.888 75.9092 112.19 75.3643 111.613 74.7301C111.036 74.0958 110.563 73.304 110.665 72.4843C110.747 71.8281 111.179 71.2609 111.49 70.6647C111.801 70.0684 111.981 69.3233 111.579 68.7748C111.012 68.0018 109.651 68.0718 109.006 67.3515C108.519 66.808 108.613 66.0255 108.565 65.3246C108.449 63.6386 107.281 62.0463 105.62 61.3069C104.775 60.9442 103.856 60.7876 102.938 60.8501C102.021 60.9125 101.132 61.1923 100.344 61.6662L99.8355 61.8634Z" fill="#2F2E41"/>
<path d="M100.608 79.982C104.384 79.982 107.445 76.9209 107.445 73.1448C107.445 69.3687 104.384 66.3076 100.608 66.3076C96.8325 66.3076 93.7715 69.3687 93.7715 73.1448C93.7715 76.9209 96.8325 79.982 100.608 79.982Z" fill="#A0616A"/>
<path d="M109.585 88.8117C109.578 87.6133 109.246 86.4392 108.624 85.4146C108.003 84.39 107.115 83.5532 106.055 82.9936C105.969 82.9463 105.88 82.9046 105.791 82.8628C105.021 82.4981 104.188 82.2863 103.338 82.2392L96.83 81.8746C95.9108 81.8221 94.9908 81.9634 94.1298 82.2894C93.9201 82.3675 93.7148 82.4567 93.5146 82.5566C92.8856 82.8665 92.3104 83.2753 91.811 83.7675C91.1532 84.4169 90.6386 85.1966 90.3002 86.0567C89.9617 86.9168 89.8069 87.8381 89.8457 88.7616L89.9627 91.5203L90.7811 93.6443H108.978C109.203 93.3708 109.399 93.074 109.562 92.7591C109.871 92.1476 110.033 91.4729 110.037 90.788C110.041 90.1031 109.886 89.4266 109.585 88.8117Z" fill="#3F3D56"/>
<path d="M109.138 85.1538C108.841 84.5096 108.376 83.9575 107.791 83.556C107.369 83.2668 106.895 83.0609 106.396 82.9491C106.196 82.9052 105.993 82.8763 105.789 82.8628C105.387 82.8355 104.984 82.8702 104.592 82.9658C104.008 83.1112 103.464 83.3874 103.002 83.7737C102.541 84.16 102.172 84.6462 101.926 85.1957C101.68 85.7451 101.561 86.3433 101.58 86.9451C101.599 87.547 101.754 88.1367 102.034 88.6697L104.537 93.4077L104.662 93.6443H113.066L109.138 85.1538Z" fill="#3F3D56"/>
<path d="M95.3836 82.6847C94.9899 82.4844 94.5657 82.3508 94.1282 82.2894C93.8026 82.243 93.4725 82.2383 93.1457 82.2755C92.314 82.3696 91.5335 82.7243 90.9155 83.2887C90.2975 83.8532 89.8738 84.5986 89.705 85.4183L88.0098 93.6443H94.6404L95.8792 93.1377L97.4213 87.2195C97.6457 86.3445 97.5662 85.4194 97.196 84.5955C96.8258 83.7716 96.1868 83.0979 95.3836 82.6847Z" fill="#3F3D56"/>
<path d="M93.6133 72.1727C95.7724 71.9994 97.565 69.8423 97.3405 67.6879C97.3152 68.5759 97.6172 69.4422 98.189 70.1221C98.7609 70.802 99.5627 71.248 100.442 71.3752C101.432 71.4843 102.518 71.1846 103.38 71.6843C104.335 72.2377 104.64 73.5816 105.635 74.0596C106.596 74.5214 107.817 73.8916 108.292 72.9368C108.766 71.9821 108.65 70.835 108.335 69.8162C107.887 68.3633 107.069 67.0512 105.963 66.0077C104.857 64.9641 103.5 64.2246 102.024 63.8609C100.547 63.4973 99.0016 63.522 97.5375 63.9327C96.0734 64.3433 94.7404 65.1259 93.6683 66.2043C92.7605 67.1175 92.0396 68.2814 91.9227 69.5638C91.8058 70.8462 92.4007 72.2377 93.5523 72.8138L93.6133 72.1727Z" fill="#2F2E41"/>
<path d="M165.733 84.4579H128.989C128.398 84.4579 127.832 84.2233 127.414 83.8056C126.996 83.388 126.762 82.8215 126.762 82.2309C126.762 81.6403 126.996 81.0738 127.414 80.6562C127.832 80.2386 128.398 80.0039 128.989 80.0039H165.733C166.324 80.0039 166.89 80.2386 167.308 80.6562C167.725 81.0738 167.96 81.6403 167.96 82.2309C167.96 82.8215 167.725 83.388 167.308 83.8056C166.89 84.2233 166.324 84.4579 165.733 84.4579Z" fill="#E6E6E6"/>
<path d="M149.031 74.9932H128.989C128.398 74.9932 127.832 74.7586 127.414 74.3409C126.996 73.9233 126.762 73.3568 126.762 72.7662C126.762 72.1755 126.996 71.6091 127.414 71.1915C127.832 70.7738 128.398 70.5392 128.989 70.5392H149.031C149.622 70.5392 150.188 70.7738 150.606 71.1915C151.023 71.6091 151.258 72.1755 151.258 72.7662C151.258 73.3568 151.023 73.9233 150.606 74.3409C150.188 74.7586 149.622 74.9932 149.031 74.9932Z" fill="url(#paint0_linear_103_2821)"/>
<path d="M159.784 91.257C157.839 91.2605 155.975 92.0358 154.601 93.4124C153.227 94.7891 152.455 96.6548 152.455 98.5999C152.455 100.545 153.227 102.411 154.601 103.787C155.975 105.164 157.839 105.939 159.784 105.943C161.729 105.939 163.594 105.164 164.968 103.787C166.342 102.411 167.113 100.545 167.113 98.5999C167.113 96.6548 166.342 94.7891 164.968 93.4124C163.594 92.0358 161.729 91.2606 159.784 91.257Z" fill="url(#paint1_linear_103_2821)"/>
<path d="M159.087 101.65C158.894 101.65 158.706 101.587 158.551 101.471L158.542 101.464L156.522 99.9195C156.334 99.7745 156.211 99.5607 156.18 99.3249C156.149 99.0892 156.212 98.8508 156.357 98.6621C156.502 98.4734 156.715 98.3498 156.951 98.3185C157.187 98.2872 157.425 98.3507 157.614 98.4951L158.922 99.4981L162.013 95.4659C162.084 95.3724 162.174 95.2939 162.276 95.235C162.378 95.1761 162.49 95.1378 162.607 95.1223C162.724 95.1069 162.843 95.1147 162.956 95.1451C163.07 95.1755 163.177 95.2281 163.27 95.2998L163.271 95.3L163.251 95.3266L163.271 95.3C163.46 95.4449 163.583 95.6588 163.614 95.8946C163.645 96.1304 163.582 96.3689 163.437 96.5578L159.802 101.299C159.718 101.408 159.61 101.496 159.486 101.557C159.362 101.618 159.226 101.649 159.088 101.648L159.087 101.65Z" fill="white"/>
</g>
<defs>
<linearGradient id="paint0_linear_103_2821" x1="126.456" y1="73.0619" x2="132.823" y2="63.1501" gradientUnits="userSpaceOnUse">
<stop offset="0.289228" stop-color="#002962"/>
<stop offset="1" stop-color="#315387"/>
</linearGradient>
<linearGradient id="paint1_linear_103_2821" x1="152.272" y1="99.5749" x2="164.351" y2="96.1627" gradientUnits="userSpaceOnUse">
<stop offset="0.289228" stop-color="#002962"/>
<stop offset="1" stop-color="#315387"/>
</linearGradient>
<clipPath id="clip0_103_2821">
<rect width="250" height="111" fill="white"/>
</clipPath>
</defs>
</svg>
