<svg width="158" height="150" viewBox="0 0 158 150" fill="none" xmlns="http://www.w3.org/2000/svg">
<g clip-path="url(#clip0_104_7729)">
<path d="M157.331 11.9737H0.610176C0.447169 11.9702 0.292005 11.9026 0.177943 11.7853C0.06388 11.6681 0 11.5105 0 11.3464C0 11.1823 0.06388 11.0247 0.177943 10.9075C0.292005 10.7902 0.447169 10.7226 0.610176 10.7191H157.331C157.494 10.7226 157.65 10.7902 157.764 10.9075C157.878 11.0247 157.942 11.1823 157.942 11.3464C157.942 11.5105 157.878 11.6681 157.764 11.7853C157.65 11.9026 157.494 11.9702 157.331 11.9737Z" fill="#3F3D56"/>
<path d="M11.2775 7.51628C13.2947 7.51628 14.9299 5.83371 14.9299 3.75814C14.9299 1.68258 13.2947 0 11.2775 0C9.26026 0 7.625 1.68258 7.625 3.75814C7.625 5.83371 9.26026 7.51628 11.2775 7.51628Z" fill="#3F3D56"/>
<path d="M23.8966 7.51628C25.9138 7.51628 27.5491 5.83371 27.5491 3.75814C27.5491 1.68258 25.9138 0 23.8966 0C21.8794 0 20.2441 1.68258 20.2441 3.75814C20.2441 5.83371 21.8794 7.51628 23.8966 7.51628Z" fill="#3F3D56"/>
<path d="M36.5138 7.51628C38.531 7.51628 40.1662 5.83371 40.1662 3.75814C40.1662 1.68258 38.531 0 36.5138 0C34.4966 0 32.8613 1.68258 32.8613 3.75814C32.8613 5.83371 34.4966 7.51628 36.5138 7.51628Z" fill="#3F3D56"/>
<path d="M149.734 0.931519H140.771C140.593 0.935079 140.424 1.00861 140.3 1.13632C140.175 1.26403 140.105 1.43574 140.105 1.61458C140.105 1.79342 140.175 1.96513 140.3 2.09284C140.424 2.22056 140.593 2.29409 140.771 2.29765H149.734C149.911 2.29409 150.08 2.22056 150.205 2.09284C150.329 1.96513 150.399 1.79342 150.399 1.61458C150.399 1.43574 150.329 1.26403 150.205 1.13632C150.08 1.00861 149.911 0.935079 149.734 0.931519Z" fill="#3F3D56"/>
<path d="M149.734 3.49548H140.771C140.593 3.49902 140.424 3.57254 140.3 3.70026C140.175 3.82797 140.105 3.99969 140.105 4.17855C140.105 4.3574 140.175 4.52913 140.3 4.65684C140.424 4.78456 140.593 4.85807 140.771 4.86161H149.734C149.911 4.85807 150.081 4.78456 150.205 4.65684C150.329 4.52913 150.399 4.3574 150.399 4.17855C150.399 3.99969 150.329 3.82797 150.205 3.70026C150.081 3.57254 149.911 3.49902 149.734 3.49548Z" fill="#3F3D56"/>
<path d="M149.734 6.05615H140.771C140.593 6.05969 140.424 6.13321 140.3 6.26092C140.175 6.38864 140.105 6.56036 140.105 6.73922C140.105 6.91807 140.175 7.08979 140.3 7.21751C140.424 7.34522 140.593 7.41874 140.771 7.42228H149.734C149.911 7.41874 150.081 7.34522 150.205 7.21751C150.329 7.08979 150.399 6.91807 150.399 6.73922C150.399 6.56036 150.329 6.38864 150.205 6.26092C150.081 6.13321 149.911 6.05969 149.734 6.05615Z" fill="#3F3D56"/>
<path d="M12.1405 37.46C14.6344 37.46 16.6561 35.4251 16.6561 32.915C16.6561 30.4049 14.6344 28.3701 12.1405 28.3701C9.64668 28.3701 7.625 30.4049 7.625 32.915C7.625 35.4251 9.64668 37.46 12.1405 37.46Z" fill="#E6E7E8"/>
<path d="M127.13 42.979H8.96963C8.61301 42.979 8.271 42.8364 8.01883 42.5826C7.76666 42.3288 7.625 41.9845 7.625 41.6256C7.625 41.2667 7.76666 40.9224 8.01883 40.6686C8.271 40.4148 8.61301 40.2722 8.96963 40.2722H127.13C127.486 40.2722 127.828 40.4148 128.08 40.6686C128.332 40.9224 128.474 41.2667 128.474 41.6256C128.474 41.9845 128.332 42.3288 128.08 42.5826C127.828 42.8364 127.486 42.979 127.13 42.979Z" fill="#E6E7E8"/>
<path d="M96.14 48.3269H8.96971C8.61307 48.3269 8.27104 48.1843 8.01886 47.9305C7.76668 47.6767 7.625 47.3324 7.625 46.9734C7.625 46.6145 7.76668 46.2702 8.01886 46.0164C8.27104 45.7626 8.61307 45.62 8.96971 45.62H96.14C96.4967 45.62 96.8387 45.7626 97.0909 46.0164C97.3431 46.2702 97.4848 46.6145 97.4848 46.9734C97.4848 47.3324 97.3431 47.6767 97.0909 47.9305C96.8387 48.1843 96.4967 48.3269 96.14 48.3269Z" fill="#E6E7E8"/>
<path d="M12.1405 108.399C14.6344 108.399 16.6561 106.364 16.6561 103.854C16.6561 101.344 14.6344 99.3092 12.1405 99.3092C9.64668 99.3092 7.625 101.344 7.625 103.854C7.625 106.364 9.64668 108.399 12.1405 108.399Z" fill="#E6E7E8"/>
<path d="M127.13 113.918H8.96984C8.79308 113.918 8.61799 113.884 8.4546 113.816C8.29122 113.748 8.14273 113.648 8.01764 113.523C7.89255 113.397 7.79332 113.248 7.72561 113.083C7.6579 112.919 7.62305 112.743 7.62305 112.565C7.62305 112.387 7.6579 112.211 7.72561 112.046C7.79332 111.882 7.89255 111.733 8.01764 111.607C8.14273 111.481 8.29122 111.382 8.4546 111.314C8.61799 111.246 8.79308 111.211 8.96984 111.211H127.13C127.504 111.232 127.858 111.394 128.12 111.663C128.383 111.933 128.536 112.292 128.549 112.669C128.538 112.845 128.492 113.017 128.415 113.176C128.338 113.334 128.23 113.475 128.098 113.591C127.966 113.707 127.812 113.796 127.646 113.852C127.48 113.908 127.305 113.931 127.13 113.918Z" fill="#E6E7E8"/>
<path d="M96.14 119.266H8.96971C8.61307 119.266 8.27104 119.123 8.01886 118.87C7.76668 118.616 7.625 118.271 7.625 117.913C7.625 117.554 7.76668 117.209 8.01886 116.955C8.27104 116.702 8.61307 116.559 8.96971 116.559H96.14C96.4967 116.559 96.8387 116.702 97.0909 116.955C97.3431 117.209 97.4848 117.554 97.4848 117.913C97.4848 118.271 97.3431 118.616 97.0909 118.87C96.8387 119.123 96.4967 119.266 96.14 119.266Z" fill="#E6E7E8"/>
<path d="M12.1405 70.2555C14.6344 70.2555 16.6561 68.2207 16.6561 65.7106C16.6561 63.2005 14.6344 61.1656 12.1405 61.1656C9.64668 61.1656 7.625 63.2005 7.625 65.7106C7.625 68.2207 9.64668 70.2555 12.1405 70.2555Z" fill="#E6E7E8"/>
<path d="M127.13 75.7746H8.96963C8.61301 75.7746 8.271 75.6321 8.01883 75.3782C7.76666 75.1244 7.625 74.7802 7.625 74.4213C7.625 74.0623 7.76666 73.7181 8.01883 73.4643C8.271 73.2105 8.61301 73.0679 8.96963 73.0679H127.13C127.486 73.0679 127.828 73.2105 128.08 73.4643C128.332 73.7181 128.474 74.0623 128.474 74.4213C128.474 74.7802 128.332 75.1244 128.08 75.3782C127.828 75.6321 127.486 75.7746 127.13 75.7746Z" fill="#E6E7E8"/>
<path d="M110.675 81.1225H8.96971C8.61307 81.1225 8.27104 80.98 8.01886 80.7261C7.76668 80.4723 7.625 80.1281 7.625 79.7691C7.625 79.4101 7.76668 79.0659 8.01886 78.8121C8.27104 78.5582 8.61307 78.4156 8.96971 78.4156H110.675C111.032 78.4156 111.374 78.5582 111.626 78.8121C111.878 79.0659 112.02 79.4101 112.02 79.7691C112.02 80.1281 111.878 80.4723 111.626 80.7261C111.374 80.98 111.032 81.1225 110.675 81.1225Z" fill="#E6E7E8"/>
<path d="M103.772 86.4704H8.96971C8.61307 86.4704 8.27104 86.3279 8.01886 86.074C7.76668 85.8202 7.625 85.476 7.625 85.117C7.625 84.758 7.76668 84.4138 8.01886 84.16C8.27104 83.9061 8.61307 83.7635 8.96971 83.7635H103.772C104.129 83.7635 104.471 83.9061 104.723 84.16C104.975 84.4138 105.117 84.758 105.117 85.117C105.117 85.476 104.975 85.8202 104.723 86.074C104.471 86.3279 104.129 86.4704 103.772 86.4704Z" fill="#E6E7E8"/>
<path d="M105.733 146.304C124.201 146.304 139.173 131.235 139.173 112.646C139.173 94.0576 124.201 78.9886 105.733 78.9886C87.2646 78.9886 72.293 94.0576 72.293 112.646C72.293 131.235 87.2646 146.304 105.733 146.304Z" fill="url(#paint0_linear_104_7729)"/>
<path d="M105.687 124.389C108.326 124.389 110.464 122.237 110.464 119.581C110.464 116.926 108.326 114.773 105.687 114.773C103.049 114.773 100.91 116.926 100.91 119.581C100.91 122.237 103.049 124.389 105.687 124.389Z" fill="#3F3D56"/>
<path d="M105.687 121.8C106.905 121.8 107.892 120.807 107.892 119.581C107.892 118.355 106.905 117.362 105.687 117.362C104.47 117.362 103.482 118.355 103.482 119.581C103.482 120.807 104.47 121.8 105.687 121.8Z" fill="url(#paint1_linear_104_7729)"/>
<path d="M114.555 130.284H96.9119C95.1649 130.282 93.4899 129.583 92.2546 128.34C91.0192 127.096 90.3243 125.411 90.3223 123.652V115.51C90.3243 113.752 91.0192 112.066 92.2545 110.822C93.4899 109.579 95.1648 108.88 96.9119 108.878H114.555C116.302 108.88 117.977 109.579 119.213 110.822C120.448 112.066 121.143 113.752 121.145 115.51V123.652C121.143 125.411 120.448 127.096 119.213 128.34C117.977 129.583 116.302 130.282 114.555 130.284ZM96.9119 109.572C95.3477 109.574 93.8482 110.2 92.7422 111.313C91.6362 112.426 91.014 113.936 91.0122 115.51V123.652C91.014 125.226 91.6362 126.736 92.7422 127.849C93.8482 128.962 95.3478 129.588 96.9119 129.59H114.555C116.12 129.588 117.619 128.962 118.725 127.849C119.831 126.736 120.453 125.226 120.455 123.652V115.51C120.453 113.936 119.831 112.426 118.725 111.313C117.619 110.2 116.12 109.574 114.555 109.572L96.9119 109.572Z" fill="white"/>
<path d="M95.8665 125.865H111.527C112.34 125.865 113.145 125.703 113.896 125.39C114.647 125.077 115.329 124.618 115.904 124.04C116.479 123.461 116.934 122.775 117.246 122.019C117.557 121.263 117.717 120.453 117.717 119.635V112.821C117.716 112.065 117.577 111.316 117.308 110.611C118.072 111.19 118.692 111.939 119.119 112.801C119.546 113.662 119.768 114.612 119.768 115.574V122.388C119.768 123.206 119.608 124.016 119.297 124.772C118.986 125.528 118.53 126.215 117.955 126.793C117.381 127.372 116.698 127.831 115.947 128.144C115.196 128.457 114.391 128.618 113.579 128.618H97.9182C96.6631 128.617 95.438 128.232 94.4054 127.514C93.3727 126.796 92.5815 125.779 92.1367 124.598C93.2087 125.42 94.519 125.865 95.8665 125.865Z" fill="#3F3D56"/>
<path d="M106.006 94.3967C102.735 94.3967 99.8602 95.887 98.2324 98.124C99.9726 96.8494 102.074 96.1709 104.226 96.1885C109.291 96.1885 113.411 99.7594 113.411 104.149V107.797H115.191V102.357C115.191 97.9677 111.071 94.3967 106.006 94.3967Z" fill="#3F3D56"/>
<path d="M116.413 109.665H95.0527V103.339C95.0527 98.2353 99.8438 94.0833 105.733 94.0833C111.622 94.0833 116.413 98.2353 116.413 103.339V109.665ZM95.7427 108.97H115.723V103.339C115.723 98.6182 111.242 94.7777 105.733 94.7777C100.224 94.7777 95.7427 98.6182 95.7427 103.339V108.97Z" fill="white"/>
<path d="M111.204 107.25H100.263C99.7705 107.249 99.2986 107.052 98.9506 106.702C98.6025 106.351 98.4068 105.876 98.4062 105.381V102.864C98.4062 99.3537 101.693 96.4983 105.733 96.4983C109.773 96.4983 113.06 99.3537 113.06 102.864V105.381C113.06 105.876 112.864 106.351 112.516 106.702C112.168 107.052 111.696 107.249 111.204 107.25ZM105.733 97.1927C102.073 97.1927 99.0962 99.7365 99.0962 102.864V105.381C99.0965 105.692 99.2195 105.991 99.4382 106.211C99.6569 106.431 99.9534 106.555 100.263 106.555H111.204C111.513 106.555 111.809 106.431 112.028 106.211C112.247 105.991 112.37 105.692 112.37 105.381V102.864C112.37 99.7365 109.393 97.1927 105.733 97.1927Z" fill="white"/>
</g>
<defs>
<linearGradient id="paint0_linear_104_7729" x1="71.457" y1="117.115" x2="126.605" y2="101.608" gradientUnits="userSpaceOnUse">
<stop offset="0.289228" stop-color="#002962"/>
<stop offset="1" stop-color="#315387"/>
</linearGradient>
<linearGradient id="paint1_linear_104_7729" x1="103.427" y1="119.876" x2="107.063" y2="118.853" gradientUnits="userSpaceOnUse">
<stop offset="0.289228" stop-color="#002962"/>
<stop offset="1" stop-color="#315387"/>
</linearGradient>
<clipPath id="clip0_104_7729">
<rect width="158" height="150" fill="white"/>
</clipPath>
</defs>
</svg>
